<?xml version="1.0" encoding="UTF-8" standalone="no"?>
<svg
   style="enable-background:new 0 0 64 64;"
   version="1.1"
   viewBox="0 0 64 64"
   xml:space="preserve"
   id="svg23"
   sodipodi:docname="linkedin.svg"
   inkscape:version="1.1.1 (3bf5ae0d25, 2021-09-20)"
   xmlns:inkscape="http://www.inkscape.org/namespaces/inkscape"
   xmlns:sodipodi="http://sodipodi.sourceforge.net/DTD/sodipodi-0.dtd"
   xmlns="http://www.w3.org/2000/svg"
   xmlns:svg="http://www.w3.org/2000/svg"><defs
     id="defs27" /><sodipodi:namedview
     id="namedview25"
     pagecolor="#ffffff"
     bordercolor="#666666"
     borderopacity="1.0"
     inkscape:pageshadow="2"
     inkscape:pageopacity="0.0"
     inkscape:pagecheckerboard="0"
     showgrid="false"
     inkscape:zoom="13.15625"
     inkscape:cx="34.052257"
     inkscape:cy="42.679335"
     inkscape:window-width="1271"
     inkscape:window-height="1041"
     inkscape:window-x="2501"
     inkscape:window-y="-4"
     inkscape:window-maximized="0"
     inkscape:current-layer="svg23" /><style
     type="text/css"
     id="style2">
	.st0{fill:#4267B2;}
	.st1{fill:url(#SVGID_1_);}
	.st2{fill:#FFFFFF;}
	.st3{fill:#C2191E;}
	.st4{fill:#1DA1F3;}
	.st5{fill:#FEFE00;}
	.st6{fill:#25D366;stroke:#FFFFFF;stroke-width:5;stroke-miterlimit:10;}
	.st7{fill:#CB2027;}
	.st8{fill:#0077B5;}
	.st9{fill:url(#SVGID_2_);}
	.st10{fill:url(#SVGID_3_);}
	.st11{fill:#FF004F;}
	.st12{fill:#00F7EF;}
	.st13{fill:#5181B8;}
	.st14{fill:#395976;}
	.st15{fill:#F58220;}
	.st16{fill:#E6162D;}
	.st17{fill:#FF9933;}
</style><g
     id="guidlines" /><g
     id="FB" /><g
     id="ig" /><g
     id="yt" /><g
     id="twitter" /><g
     id="snapchat" /><g
     id="WA" /><g
     id="Pinterrest" /><g
     id="Layer_9"
     transform="matrix(1.0658749,0,0,1.0633413,-2.1079968,-2.02692)"><path
       class="st8"
       d="m 2,6 v 52 c 0,2.2 1.8,4 4,4 h 52 c 2.2,0 4,-1.8 4,-4 V 6 C 62,3.8 60.2,2 58,2 H 6 C 3.8,2 2,3.8 2,6 Z M 19.1,52 H 12 V 24.4 h 7.1 z M 15.6,18.9 c -2,0 -3.6,-1.5 -3.6,-3.4 0,-1.9 1.6,-3.4 3.6,-3.4 2,0 3.6,1.5 3.6,3.4 -0.1,1.9 -1.7,3.4 -3.6,3.4 z M 52,52 H 44.9 V 38.2 c 0,-2.9 -0.1,-4.8 -0.4,-5.7 -0.3,-0.9 -0.8,-1.5 -1.4,-2 -0.7,-0.5 -1.5,-0.7 -2.4,-0.7 -1.2,0 -2.3,0.3 -3.2,1 -1,0.7 -1.6,1.6 -2,2.7 -0.4,1.1 -0.5,3.2 -0.5,6.2 V 52 H 26.4 V 24.4 h 7.1 v 4.1 c 2.4,-3.1 5.5,-4.7 9.2,-4.7 1.6,0 3.1,0.3 4.5,0.9 1.3,0.6 2.4,1.3 3.1,2.2 0.7,0.9 1.2,1.9 1.4,3.1 0.3,1.1 0.4,2.8 0.4,4.9 V 52 Z"
       id="path12" /></g><g
     id="Layer_10" /><g
     id="Layer_11" /><g
     id="Layer_12" /><g
     id="Layer_13" /><g
     id="Layer_14" /><g
     id="Layer_15" /><g
     id="Layer_16" /><g
     id="Layer_17" /></svg>
